<svg id="Calque_1" data-name="Calque 1" xmlns="http://www.w3.org/2000/svg" xmlns:xlink="http://www.w3.org/1999/xlink" viewBox="0 0 250 250"><defs><style>.cls-1{fill:url(#Nouvelle_nuance_de_dégradé_1);}.cls-2,.cls-3,.cls-4,.cls-5{fill:none;stroke-miterlimit:10;stroke-width:5px;}.cls-2{stroke:url(#Nouvelle_nuance_de_dégradé_1-2);}.cls-3{stroke:url(#Nouvelle_nuance_de_dégradé_1-3);}.cls-4{stroke:url(#Nouvelle_nuance_de_dégradé_1-4);}.cls-5{stroke:url(#Nouvelle_nuance_de_dégradé_1-5);}</style><linearGradient id="Nouvelle_nuance_de_dégradé_1" x1="25.15" y1="126.49" x2="205.71" y2="126.49" gradientUnits="userSpaceOnUse"><stop offset="0" stop-color="#4e0eff"/><stop offset="0.08" stop-color="#5417fe"/><stop offset="0.23" stop-color="#6431fc"/><stop offset="0.4" stop-color="#7e5af7"/><stop offset="0.57" stop-color="#9a86f3"/><stop offset="0.87" stop-color="#0075be"/><stop offset="0.99" stop-color="#005b97"/></linearGradient><linearGradient id="Nouvelle_nuance_de_dégradé_1-2" x1="164.99" y1="101.94" x2="232.82" y2="101.94" xlink:href="#Nouvelle_nuance_de_dégradé_1"/><linearGradient id="Nouvelle_nuance_de_dégradé_1-3" x1="168.07" y1="117.42" x2="238.34" y2="117.42" xlink:href="#Nouvelle_nuance_de_dégradé_1"/><linearGradient id="Nouvelle_nuance_de_dégradé_1-4" x1="167.35" y1="134.62" x2="237.34" y2="134.62" xlink:href="#Nouvelle_nuance_de_dégradé_1"/><linearGradient id="Nouvelle_nuance_de_dégradé_1-5" x1="163.29" y1="151.83" x2="229.37" y2="151.83" xlink:href="#Nouvelle_nuance_de_dégradé_1"/></defs><title>Logo</title><path class="cls-1" d="M205.71,82.27l-6.59,3.41Q186.6,71.09,166.78,62.6A107.7,107.7,0,0,0,124,54.13a109.24,109.24,0,0,0-35.31,5.72,95.42,95.42,0,0,0-29,15.43A74,74,0,0,0,40.25,98.39a58.49,58.49,0,0,0,0,56.19A74,74,0,0,0,59.64,177.7a95.62,95.62,0,0,0,29.05,15.42A109,109,0,0,0,124,198.84a107.07,107.07,0,0,0,42.83-8.56q19.88-8.57,32.4-23.16L205.6,171Q192,186.69,170.46,195.92A116.9,116.9,0,0,1,124,205.14a118.06,118.06,0,0,1-38.39-6.25,104.33,104.33,0,0,1-31.52-16.78A81,81,0,0,1,33,157a63.35,63.35,0,0,1,0-61.09A81,81,0,0,1,54.09,70.86,104.33,104.33,0,0,1,85.61,54.08,118.05,118.05,0,0,1,124,47.84a116.44,116.44,0,0,1,46.56,9.26Q192.08,66.37,205.71,82.27Zm-13,7.16-6.59,3.41q-10.32-12.06-26.74-19.09a89,89,0,0,0-35.42-7,90.73,90.73,0,0,0-29.22,4.72,78.72,78.72,0,0,0-24,12.72,60.88,60.88,0,0,0-16,19.09,48.52,48.52,0,0,0,0,46.49,60.91,60.91,0,0,0,16,19.1,78.71,78.71,0,0,0,24,12.71A90.46,90.46,0,0,0,124,186.26a88.35,88.35,0,0,0,35.47-7.08q16.36-7.08,26.69-19.14l6.37,3.76q-11.43,13.29-29.49,21a98.24,98.24,0,0,1-39,7.73,97.57,97.57,0,0,1-41.63-8.87q-19.11-8.87-30.26-24.07a54.8,54.8,0,0,1,0-66.24Q63.26,78.16,82.37,69.29A97.72,97.72,0,0,1,124,60.42a98,98,0,0,1,39.21,7.82Q181.33,76.07,192.75,89.43Zm-13.18,7L173,99.83a56.88,56.88,0,0,0-21-15A70,70,0,0,0,124,79.3a69.75,69.75,0,0,0-29.77,6.33A54.92,54.92,0,0,0,72.65,102.8a39.22,39.22,0,0,0,0,47.37,54.83,54.83,0,0,0,21.58,17.17A69.76,69.76,0,0,0,124,173.68a69.87,69.87,0,0,0,28-5.6A56.51,56.51,0,0,0,173.09,153l6.48,3.59a63.84,63.84,0,0,1-23.89,17.13A79.52,79.52,0,0,1,124,180a79.24,79.24,0,0,1-33.72-7.17q-15.48-7.16-24.49-19.49a44.44,44.44,0,0,1,0-53.65q9-12.33,24.49-19.49A79.24,79.24,0,0,1,124,73a79.36,79.36,0,0,1,31.68,6.3A63.71,63.71,0,0,1,179.57,96.42Zm-13.07,7.17L160,107a41,41,0,0,0-15.43-11.06A51.78,51.78,0,0,0,124,91.88q-18,0-30.76,10.14T80.5,126.49q0,14.33,12.74,24.47T124,161.09A51.29,51.29,0,0,0,144.59,157,41.23,41.23,0,0,0,160,145.89l6.37,3.67a49,49,0,0,1-18.23,13,60.69,60.69,0,0,1-24.16,4.8,61.37,61.37,0,0,1-19.94-3.23,54.11,54.11,0,0,1-16.42-8.74,42,42,0,0,1-11-13.06,33,33,0,0,1,0-31.72,42,42,0,0,1,11-13.07,54.33,54.33,0,0,1,16.42-8.74A61.64,61.64,0,0,1,124,85.59a60.32,60.32,0,0,1,24.27,4.85A48.85,48.85,0,0,1,166.5,103.59Z"/><line class="cls-2" x1="165.82" y1="113.55" x2="232" y2="90.33"/><line class="cls-3" x1="168.32" y1="120.95" x2="238.09" y2="113.89"/><line class="cls-4" x1="167.77" y1="128.81" x2="236.92" y2="140.44"/><line class="cls-5" x1="164.31" y1="137.54" x2="228.35" y2="166.12"/></svg>